<mxfile host="app.diagrams.net" modified="2023-03-25T21:44:53.440Z" agent="Mozilla/5.0 (Windows NT 10.0; Win64; x64) AppleWebKit/537.36 (KHTML, like Gecko) Chrome/111.0.0.0 Safari/537.36" etag="UkCdHm1DmmgHNYhMvhpW" version="21.1.1" type="github">
  <diagram name="Page-1" id="929967ad-93f9-6ef4-fab6-5d389245f69c">
    <mxGraphModel dx="2607" dy="2597" grid="1" gridSize="10" guides="1" tooltips="1" connect="1" arrows="1" fold="1" page="1" pageScale="1.5" pageWidth="1169" pageHeight="826" background="none" math="0" shadow="0">
      <root>
        <mxCell id="0" style=";html=1;" />
        <mxCell id="1" style=";html=1;" parent="0" />
        <mxCell id="7_-KOmJF56WA2YFmEBqw-1" value="&lt;font color=&quot;#ffffff&quot;&gt;&lt;b&gt;Student&lt;/b&gt;&lt;/font&gt;" style="swimlane;html=1;fontStyle=0;childLayout=stackLayout;horizontal=1;startSize=26;fillColor=#8e0b32;horizontalStack=0;resizeParent=1;resizeLast=0;collapsible=1;marginBottom=0;swimlaneFillColor=#ffffff;align=center;rounded=1;shadow=0;comic=0;labelBackgroundColor=none;strokeWidth=1;fontFamily=Verdana;fontSize=12;strokeColor=#9673a6;" vertex="1" parent="1">
          <mxGeometry x="770" y="-1010" width="160" height="84" as="geometry" />
        </mxCell>
        <mxCell id="7_-KOmJF56WA2YFmEBqw-2" value="&lt;font color=&quot;#ffffff&quot;&gt;&lt;b&gt;Settings&lt;/b&gt;&lt;/font&gt;" style="swimlane;html=1;fontStyle=0;childLayout=stackLayout;horizontal=1;startSize=26;fillColor=#8e0b32;horizontalStack=0;resizeParent=1;resizeLast=0;collapsible=1;marginBottom=0;swimlaneFillColor=#ffffff;align=center;rounded=1;shadow=0;comic=0;labelBackgroundColor=none;strokeWidth=1;fontFamily=Verdana;fontSize=12;strokeColor=#9673a6;" vertex="1" parent="1">
          <mxGeometry x="1010" y="-1070" width="160" height="84" as="geometry" />
        </mxCell>
        <mxCell id="7_-KOmJF56WA2YFmEBqw-3" style="edgeStyle=orthogonalEdgeStyle;rounded=0;orthogonalLoop=1;jettySize=auto;html=1;exitX=0;exitY=0.5;exitDx=0;exitDy=0;entryX=1;entryY=0.5;entryDx=0;entryDy=0;" edge="1" parent="1" source="7_-KOmJF56WA2YFmEBqw-9" target="7_-KOmJF56WA2YFmEBqw-11">
          <mxGeometry relative="1" as="geometry" />
        </mxCell>
        <mxCell id="7_-KOmJF56WA2YFmEBqw-4" style="edgeStyle=orthogonalEdgeStyle;rounded=0;orthogonalLoop=1;jettySize=auto;html=1;exitX=0;exitY=0.75;exitDx=0;exitDy=0;entryX=1;entryY=0.5;entryDx=0;entryDy=0;" edge="1" parent="1" source="7_-KOmJF56WA2YFmEBqw-9" target="7_-KOmJF56WA2YFmEBqw-16">
          <mxGeometry relative="1" as="geometry" />
        </mxCell>
        <mxCell id="7_-KOmJF56WA2YFmEBqw-5" style="edgeStyle=orthogonalEdgeStyle;rounded=0;orthogonalLoop=1;jettySize=auto;html=1;exitX=0.75;exitY=1;exitDx=0;exitDy=0;entryX=0;entryY=0.5;entryDx=0;entryDy=0;" edge="1" parent="1" source="7_-KOmJF56WA2YFmEBqw-9" target="7_-KOmJF56WA2YFmEBqw-14">
          <mxGeometry relative="1" as="geometry" />
        </mxCell>
        <mxCell id="7_-KOmJF56WA2YFmEBqw-6" style="edgeStyle=orthogonalEdgeStyle;rounded=0;orthogonalLoop=1;jettySize=auto;html=1;exitX=0.25;exitY=1;exitDx=0;exitDy=0;entryX=0.5;entryY=0;entryDx=0;entryDy=0;" edge="1" parent="1" source="7_-KOmJF56WA2YFmEBqw-9" target="7_-KOmJF56WA2YFmEBqw-12">
          <mxGeometry relative="1" as="geometry" />
        </mxCell>
        <mxCell id="7_-KOmJF56WA2YFmEBqw-7" style="edgeStyle=orthogonalEdgeStyle;rounded=0;orthogonalLoop=1;jettySize=auto;html=1;exitX=0.5;exitY=0;exitDx=0;exitDy=0;entryX=0.5;entryY=1;entryDx=0;entryDy=0;" edge="1" parent="1" source="7_-KOmJF56WA2YFmEBqw-9" target="7_-KOmJF56WA2YFmEBqw-15">
          <mxGeometry relative="1" as="geometry" />
        </mxCell>
        <mxCell id="7_-KOmJF56WA2YFmEBqw-8" style="edgeStyle=orthogonalEdgeStyle;rounded=0;orthogonalLoop=1;jettySize=auto;html=1;exitX=0.5;exitY=1;exitDx=0;exitDy=0;entryX=0;entryY=0.25;entryDx=0;entryDy=0;" edge="1" parent="1" source="7_-KOmJF56WA2YFmEBqw-9" target="7_-KOmJF56WA2YFmEBqw-13">
          <mxGeometry relative="1" as="geometry" />
        </mxCell>
        <mxCell id="7_-KOmJF56WA2YFmEBqw-9" value="&lt;font color=&quot;#ffffff&quot;&gt;&lt;b&gt;MainMenu&lt;br&gt;&lt;/b&gt;&lt;/font&gt;" style="swimlane;html=1;fontStyle=0;childLayout=stackLayout;horizontal=1;startSize=26;fillColor=#8e0b32;horizontalStack=0;resizeParent=1;resizeLast=0;collapsible=1;marginBottom=0;swimlaneFillColor=#ffffff;align=center;rounded=1;shadow=0;comic=0;labelBackgroundColor=none;strokeWidth=1;fontFamily=Verdana;fontSize=12;strokeColor=#9673a6;" vertex="1" parent="1">
          <mxGeometry x="560" y="-866" width="160" height="84" as="geometry" />
        </mxCell>
        <mxCell id="7_-KOmJF56WA2YFmEBqw-10" value="&lt;font color=&quot;#ffffff&quot;&gt;&lt;b&gt;Profile&lt;/b&gt;&lt;/font&gt;" style="swimlane;html=1;fontStyle=0;childLayout=stackLayout;horizontal=1;startSize=26;fillColor=#8e0b32;horizontalStack=0;resizeParent=1;resizeLast=0;collapsible=1;marginBottom=0;swimlaneFillColor=#ffffff;align=center;rounded=1;shadow=0;comic=0;labelBackgroundColor=none;strokeWidth=1;fontFamily=Verdana;fontSize=12;strokeColor=#9673a6;" vertex="1" parent="1">
          <mxGeometry x="870" y="-1186" width="160" height="84" as="geometry" />
        </mxCell>
        <mxCell id="7_-KOmJF56WA2YFmEBqw-11" value="&lt;font color=&quot;#ffffff&quot;&gt;&lt;b&gt;Cafeteria&lt;/b&gt;&lt;/font&gt;" style="swimlane;html=1;fontStyle=0;childLayout=stackLayout;horizontal=1;startSize=26;fillColor=#8e0b32;horizontalStack=0;resizeParent=1;resizeLast=0;collapsible=1;marginBottom=0;swimlaneFillColor=#ffffff;align=center;rounded=1;shadow=0;comic=0;labelBackgroundColor=none;strokeWidth=1;fontFamily=Verdana;fontSize=12;strokeColor=#9673a6;" vertex="1" parent="1">
          <mxGeometry x="359.94" y="-996" width="160" height="84" as="geometry">
            <mxRectangle x="289.94" y="-10" width="100" height="30" as="alternateBounds" />
          </mxGeometry>
        </mxCell>
        <mxCell id="7_-KOmJF56WA2YFmEBqw-12" value="&lt;font color=&quot;#ffffff&quot;&gt;&lt;b&gt;Transportation&lt;/b&gt;&lt;/font&gt;" style="swimlane;html=1;fontStyle=0;childLayout=stackLayout;horizontal=1;startSize=26;fillColor=#8e0b32;horizontalStack=0;resizeParent=1;resizeLast=0;collapsible=1;marginBottom=0;swimlaneFillColor=#ffffff;align=center;rounded=1;shadow=0;comic=0;labelBackgroundColor=none;strokeWidth=1;fontFamily=Verdana;fontSize=12;strokeColor=#9673a6;" vertex="1" parent="1">
          <mxGeometry x="510" y="-570" width="160" height="84" as="geometry" />
        </mxCell>
        <mxCell id="7_-KOmJF56WA2YFmEBqw-13" value="&lt;font color=&quot;#ffffff&quot;&gt;&lt;b&gt;Library&lt;/b&gt;&lt;/font&gt;" style="swimlane;html=1;fontStyle=0;childLayout=stackLayout;horizontal=1;startSize=26;fillColor=#8e0b32;horizontalStack=0;resizeParent=1;resizeLast=0;collapsible=1;marginBottom=0;swimlaneFillColor=#ffffff;align=center;rounded=1;shadow=0;comic=0;labelBackgroundColor=none;strokeWidth=1;fontFamily=Verdana;fontSize=12;strokeColor=#9673a6;" vertex="1" parent="1">
          <mxGeometry x="760" y="-612" width="160" height="84" as="geometry" />
        </mxCell>
        <mxCell id="7_-KOmJF56WA2YFmEBqw-14" value="&lt;font color=&quot;#ffffff&quot;&gt;&lt;b&gt;Map&lt;/b&gt;&lt;/font&gt;" style="swimlane;html=1;fontStyle=0;childLayout=stackLayout;horizontal=1;startSize=26;fillColor=#8e0b32;horizontalStack=0;resizeParent=1;resizeLast=0;collapsible=1;marginBottom=0;swimlaneFillColor=#ffffff;align=center;rounded=1;shadow=0;comic=0;labelBackgroundColor=none;strokeWidth=1;fontFamily=Verdana;fontSize=12;strokeColor=#9673a6;" vertex="1" parent="1">
          <mxGeometry x="750" y="-796" width="160" height="84" as="geometry" />
        </mxCell>
        <mxCell id="7_-KOmJF56WA2YFmEBqw-15" value="&lt;font color=&quot;#ffffff&quot;&gt;&lt;b&gt;CourseMenu&lt;/b&gt;&lt;/font&gt;" style="swimlane;html=1;fontStyle=0;childLayout=stackLayout;horizontal=1;startSize=26;fillColor=#8e0b32;horizontalStack=0;resizeParent=1;resizeLast=0;collapsible=1;marginBottom=0;swimlaneFillColor=#ffffff;align=center;rounded=1;shadow=0;comic=0;labelBackgroundColor=none;strokeWidth=1;fontFamily=Verdana;fontSize=12;strokeColor=#9673a6;" vertex="1" parent="1">
          <mxGeometry x="540" y="-1080" width="160" height="84" as="geometry" />
        </mxCell>
        <mxCell id="7_-KOmJF56WA2YFmEBqw-16" value="&lt;font color=&quot;#ffffff&quot;&gt;&lt;b&gt;News&lt;/b&gt;&lt;/font&gt;" style="swimlane;html=1;fontStyle=0;childLayout=stackLayout;horizontal=1;startSize=26;fillColor=#8e0b32;horizontalStack=0;resizeParent=1;resizeLast=0;collapsible=1;marginBottom=0;swimlaneFillColor=#ffffff;align=center;rounded=1;shadow=0;comic=0;labelBackgroundColor=none;strokeWidth=1;fontFamily=Verdana;fontSize=12;strokeColor=#9673a6;" vertex="1" parent="1">
          <mxGeometry x="329.94" y="-636" width="160" height="84" as="geometry" />
        </mxCell>
        <mxCell id="7_-KOmJF56WA2YFmEBqw-17" value="&lt;font color=&quot;#ffffff&quot;&gt;&lt;b&gt;Announcement&lt;/b&gt;&lt;/font&gt;" style="swimlane;html=1;fontStyle=0;childLayout=stackLayout;horizontal=1;startSize=26;fillColor=#8e0b32;horizontalStack=0;resizeParent=1;resizeLast=0;collapsible=1;marginBottom=0;swimlaneFillColor=#ffffff;align=center;rounded=1;shadow=0;comic=0;labelBackgroundColor=none;strokeWidth=1;fontFamily=Verdana;fontSize=12;strokeColor=#9673a6;" vertex="1" parent="1">
          <mxGeometry x="109.94" y="-690" width="160" height="84" as="geometry" />
        </mxCell>
        <mxCell id="7_-KOmJF56WA2YFmEBqw-18" value="&lt;font color=&quot;#ffffff&quot;&gt;&lt;b&gt;Course&lt;/b&gt;&lt;/font&gt;" style="swimlane;html=1;fontStyle=0;childLayout=stackLayout;horizontal=1;startSize=26;fillColor=#8e0b32;horizontalStack=0;resizeParent=1;resizeLast=0;collapsible=1;marginBottom=0;swimlaneFillColor=#ffffff;align=center;rounded=1;shadow=0;comic=0;labelBackgroundColor=none;strokeWidth=1;fontFamily=Verdana;fontSize=12;strokeColor=#9673a6;" vertex="1" parent="1">
          <mxGeometry x="670" y="-1210" width="160" height="84" as="geometry" />
        </mxCell>
        <mxCell id="7_-KOmJF56WA2YFmEBqw-19" value="&lt;font color=&quot;#ffffff&quot;&gt;&lt;b&gt;Calendar&lt;/b&gt;&lt;/font&gt;" style="swimlane;html=1;fontStyle=0;childLayout=stackLayout;horizontal=1;startSize=26;fillColor=#8e0b32;horizontalStack=0;resizeParent=1;resizeLast=0;collapsible=1;marginBottom=0;swimlaneFillColor=#ffffff;align=center;rounded=1;shadow=0;comic=0;labelBackgroundColor=none;strokeWidth=1;fontFamily=Verdana;fontSize=12;strokeColor=#9673a6;" vertex="1" parent="1">
          <mxGeometry x="420" y="-1210" width="160" height="84" as="geometry" />
        </mxCell>
        <mxCell id="7_-KOmJF56WA2YFmEBqw-20" value="&lt;font color=&quot;#ffffff&quot;&gt;&lt;b&gt;Bus&lt;/b&gt;&lt;/font&gt;" style="swimlane;html=1;fontStyle=0;childLayout=stackLayout;horizontal=1;startSize=26;fillColor=#8e0b32;horizontalStack=0;resizeParent=1;resizeLast=0;collapsible=1;marginBottom=0;swimlaneFillColor=#ffffff;align=center;rounded=1;shadow=0;comic=0;labelBackgroundColor=none;strokeWidth=1;fontFamily=Verdana;fontSize=12;strokeColor=#9673a6;" vertex="1" parent="1">
          <mxGeometry x="370.06" y="-455" width="160" height="84" as="geometry" />
        </mxCell>
        <mxCell id="7_-KOmJF56WA2YFmEBqw-21" value="&lt;font color=&quot;#ffffff&quot;&gt;&lt;b&gt;Train&lt;/b&gt;&lt;/font&gt;" style="swimlane;html=1;fontStyle=0;childLayout=stackLayout;horizontal=1;startSize=26;fillColor=#8e0b32;horizontalStack=0;resizeParent=1;resizeLast=0;collapsible=1;marginBottom=0;swimlaneFillColor=#ffffff;align=center;rounded=1;shadow=0;comic=0;labelBackgroundColor=none;strokeWidth=1;fontFamily=Verdana;fontSize=12;strokeColor=#9673a6;" vertex="1" parent="1">
          <mxGeometry x="650.06" y="-455" width="160" height="84" as="geometry" />
        </mxCell>
        <mxCell id="7_-KOmJF56WA2YFmEBqw-22" value="&lt;font color=&quot;#ffffff&quot;&gt;&lt;b&gt;Event&lt;/b&gt;&lt;/font&gt;" style="swimlane;html=1;fontStyle=0;childLayout=stackLayout;horizontal=1;startSize=26;fillColor=#8e0b32;horizontalStack=0;resizeParent=1;resizeLast=0;collapsible=1;marginBottom=0;swimlaneFillColor=#ffffff;align=center;rounded=1;shadow=0;comic=0;labelBackgroundColor=none;strokeWidth=1;fontFamily=Verdana;fontSize=12;strokeColor=#9673a6;" vertex="1" parent="1">
          <mxGeometry x="109.94" y="-580" width="160" height="84" as="geometry" />
        </mxCell>
        <mxCell id="7_-KOmJF56WA2YFmEBqw-23" value="&lt;font color=&quot;#ffffff&quot;&gt;&lt;b&gt;MemberCard&lt;/b&gt;&lt;/font&gt;" style="swimlane;html=1;fontStyle=0;childLayout=stackLayout;horizontal=1;startSize=26;fillColor=#8e0b32;horizontalStack=0;resizeParent=1;resizeLast=0;collapsible=1;marginBottom=0;swimlaneFillColor=#ffffff;align=center;rounded=1;shadow=0;comic=0;labelBackgroundColor=none;strokeWidth=1;fontFamily=Verdana;fontSize=12;strokeColor=#9673a6;" vertex="1" parent="1">
          <mxGeometry x="950" y="-676" width="160" height="84" as="geometry" />
        </mxCell>
        <mxCell id="7_-KOmJF56WA2YFmEBqw-24" value="&lt;font color=&quot;#ffffff&quot;&gt;&lt;b&gt;Book&lt;/b&gt;&lt;/font&gt;" style="swimlane;html=1;fontStyle=0;childLayout=stackLayout;horizontal=1;startSize=26;fillColor=#8e0b32;horizontalStack=0;resizeParent=1;resizeLast=0;collapsible=1;marginBottom=0;swimlaneFillColor=#ffffff;align=center;rounded=1;shadow=0;comic=0;labelBackgroundColor=none;strokeWidth=1;fontFamily=Verdana;fontSize=12;strokeColor=#9673a6;" vertex="1" parent="1">
          <mxGeometry x="960" y="-556" width="160" height="84" as="geometry" />
        </mxCell>
        <mxCell id="7_-KOmJF56WA2YFmEBqw-25" value="&lt;font color=&quot;#ffffff&quot;&gt;&lt;b&gt;Building&lt;/b&gt;&lt;/font&gt;" style="swimlane;html=1;fontStyle=0;childLayout=stackLayout;horizontal=1;startSize=26;fillColor=#8e0b32;horizontalStack=0;resizeParent=1;resizeLast=0;collapsible=1;marginBottom=0;swimlaneFillColor=#ffffff;align=center;rounded=1;shadow=0;comic=0;labelBackgroundColor=none;strokeWidth=1;fontFamily=Verdana;fontSize=12;strokeColor=#9673a6;" vertex="1" parent="1">
          <mxGeometry x="960" y="-796" width="160" height="84" as="geometry" />
        </mxCell>
        <mxCell id="7_-KOmJF56WA2YFmEBqw-26" value="" style="endArrow=diamondThin;endFill=0;endSize=24;html=1;rounded=0;" edge="1" parent="7_-KOmJF56WA2YFmEBqw-25">
          <mxGeometry width="160" relative="1" as="geometry">
            <mxPoint x="-50" y="51.579999999999984" as="sourcePoint" />
            <mxPoint y="52" as="targetPoint" />
          </mxGeometry>
        </mxCell>
        <mxCell id="7_-KOmJF56WA2YFmEBqw-27" value="&lt;font color=&quot;#ffffff&quot;&gt;&lt;b&gt;Today&lt;/b&gt;&lt;/font&gt;" style="swimlane;html=1;fontStyle=0;childLayout=stackLayout;horizontal=1;startSize=26;fillColor=#8e0b32;horizontalStack=0;resizeParent=1;resizeLast=0;collapsible=1;marginBottom=0;swimlaneFillColor=#ffffff;align=center;rounded=1;shadow=0;comic=0;labelBackgroundColor=none;strokeWidth=1;fontFamily=Verdana;fontSize=12;strokeColor=#9673a6;" vertex="1" parent="1">
          <mxGeometry x="139.94" y="-906" width="160" height="84" as="geometry" />
        </mxCell>
        <mxCell id="7_-KOmJF56WA2YFmEBqw-28" value="&lt;font color=&quot;#ffffff&quot;&gt;&lt;b&gt;Week&lt;/b&gt;&lt;/font&gt;" style="swimlane;html=1;fontStyle=0;childLayout=stackLayout;horizontal=1;startSize=26;fillColor=#8e0b32;horizontalStack=0;resizeParent=1;resizeLast=0;collapsible=1;marginBottom=0;swimlaneFillColor=#ffffff;align=center;rounded=1;shadow=0;comic=0;labelBackgroundColor=none;strokeWidth=1;fontFamily=Verdana;fontSize=12;strokeColor=#9673a6;" vertex="1" parent="1">
          <mxGeometry x="129.94" y="-1016" width="160" height="84" as="geometry" />
        </mxCell>
        <mxCell id="7_-KOmJF56WA2YFmEBqw-29" value="&lt;font color=&quot;#ffffff&quot;&gt;&lt;b&gt;Month&lt;/b&gt;&lt;/font&gt;" style="swimlane;html=1;fontStyle=0;childLayout=stackLayout;horizontal=1;startSize=26;fillColor=#8e0b32;horizontalStack=0;resizeParent=1;resizeLast=0;collapsible=1;marginBottom=0;swimlaneFillColor=#ffffff;align=center;rounded=1;shadow=0;comic=0;labelBackgroundColor=none;strokeWidth=1;fontFamily=Verdana;fontSize=12;strokeColor=#9673a6;" vertex="1" parent="1">
          <mxGeometry x="169.94" y="-1116" width="160" height="84" as="geometry" />
        </mxCell>
        <mxCell id="7_-KOmJF56WA2YFmEBqw-30" value="&lt;font color=&quot;#ffffff&quot;&gt;&lt;b&gt;Menu&lt;/b&gt;&lt;/font&gt;" style="swimlane;html=1;fontStyle=0;childLayout=stackLayout;horizontal=1;startSize=26;fillColor=#8e0b32;horizontalStack=0;resizeParent=1;resizeLast=0;collapsible=1;marginBottom=0;swimlaneFillColor=#ffffff;align=center;rounded=1;shadow=0;comic=0;labelBackgroundColor=none;strokeWidth=1;fontFamily=Verdana;fontSize=12;strokeColor=#9673a6;" vertex="1" parent="1">
          <mxGeometry x="340" y="-870" width="160" height="84" as="geometry" />
        </mxCell>
        <mxCell id="7_-KOmJF56WA2YFmEBqw-31" value="&lt;font color=&quot;#ffffff&quot;&gt;&lt;b&gt;Language&lt;/b&gt;&lt;/font&gt;" style="swimlane;html=1;fontStyle=0;childLayout=stackLayout;horizontal=1;startSize=26;fillColor=#8e0b32;horizontalStack=0;resizeParent=1;resizeLast=0;collapsible=1;marginBottom=0;swimlaneFillColor=#ffffff;align=center;rounded=1;shadow=0;comic=0;labelBackgroundColor=none;strokeWidth=1;fontFamily=Verdana;fontSize=12;strokeColor=#9673a6;" vertex="1" parent="1">
          <mxGeometry x="1010" y="-926" width="160" height="84" as="geometry" />
        </mxCell>
        <mxCell id="7_-KOmJF56WA2YFmEBqw-32" value="" style="endArrow=diamondThin;endFill=0;endSize=24;html=1;rounded=0;exitX=0.5;exitY=1;exitDx=0;exitDy=0;" edge="1" parent="1" source="7_-KOmJF56WA2YFmEBqw-13">
          <mxGeometry width="160" relative="1" as="geometry">
            <mxPoint x="800" y="-502" as="sourcePoint" />
            <mxPoint x="960" y="-502" as="targetPoint" />
            <Array as="points">
              <mxPoint x="840" y="-502" />
              <mxPoint x="870" y="-502" />
              <mxPoint x="900" y="-502" />
            </Array>
          </mxGeometry>
        </mxCell>
        <mxCell id="7_-KOmJF56WA2YFmEBqw-33" value="" style="endArrow=diamondThin;endFill=0;endSize=24;html=1;rounded=0;entryX=0.5;entryY=1;entryDx=0;entryDy=0;" edge="1" parent="1" target="7_-KOmJF56WA2YFmEBqw-18">
          <mxGeometry width="160" relative="1" as="geometry">
            <mxPoint x="700" y="-1066" as="sourcePoint" />
            <mxPoint x="860" y="-876" as="targetPoint" />
            <Array as="points">
              <mxPoint x="700" y="-1066" />
              <mxPoint x="750" y="-1066" />
            </Array>
          </mxGeometry>
        </mxCell>
        <mxCell id="7_-KOmJF56WA2YFmEBqw-34" value="" style="endArrow=open;endSize=12;dashed=1;html=1;rounded=0;exitX=0;exitY=0.5;exitDx=0;exitDy=0;entryX=1;entryY=0.5;entryDx=0;entryDy=0;" edge="1" parent="1" source="7_-KOmJF56WA2YFmEBqw-18" target="7_-KOmJF56WA2YFmEBqw-19">
          <mxGeometry width="160" relative="1" as="geometry">
            <mxPoint x="550" y="-1116" as="sourcePoint" />
            <mxPoint x="710" y="-1116" as="targetPoint" />
          </mxGeometry>
        </mxCell>
        <mxCell id="7_-KOmJF56WA2YFmEBqw-35" value="" style="endArrow=diamondThin;endFill=1;endSize=24;html=1;rounded=0;entryX=0.5;entryY=1;entryDx=0;entryDy=0;exitX=-0.006;exitY=0.169;exitDx=0;exitDy=0;exitPerimeter=0;" edge="1" parent="1" source="7_-KOmJF56WA2YFmEBqw-15" target="7_-KOmJF56WA2YFmEBqw-19">
          <mxGeometry width="160" relative="1" as="geometry">
            <mxPoint x="610" y="-1036" as="sourcePoint" />
            <mxPoint x="770" y="-1036" as="targetPoint" />
            <Array as="points">
              <mxPoint x="500" y="-1066" />
            </Array>
          </mxGeometry>
        </mxCell>
        <mxCell id="7_-KOmJF56WA2YFmEBqw-36" value="" style="endArrow=diamondThin;endFill=0;endSize=24;html=1;rounded=0;" edge="1" parent="1">
          <mxGeometry width="160" relative="1" as="geometry">
            <mxPoint x="360" y="-956" as="sourcePoint" />
            <mxPoint x="290" y="-996" as="targetPoint" />
            <Array as="points">
              <mxPoint x="330" y="-956" />
              <mxPoint x="330" y="-996" />
            </Array>
          </mxGeometry>
        </mxCell>
        <mxCell id="7_-KOmJF56WA2YFmEBqw-37" value="" style="endArrow=diamondThin;endFill=0;endSize=24;html=1;rounded=0;exitX=0.439;exitY=-0.006;exitDx=0;exitDy=0;exitPerimeter=0;" edge="1" parent="1" source="7_-KOmJF56WA2YFmEBqw-11">
          <mxGeometry width="160" relative="1" as="geometry">
            <mxPoint x="350" y="-1016" as="sourcePoint" />
            <mxPoint x="330" y="-1076" as="targetPoint" />
            <Array as="points">
              <mxPoint x="430" y="-1076" />
            </Array>
          </mxGeometry>
        </mxCell>
        <mxCell id="7_-KOmJF56WA2YFmEBqw-38" value="" style="endArrow=diamondThin;endFill=0;endSize=24;html=1;rounded=0;exitX=0;exitY=0.75;exitDx=0;exitDy=0;" edge="1" parent="1" source="7_-KOmJF56WA2YFmEBqw-11">
          <mxGeometry width="160" relative="1" as="geometry">
            <mxPoint x="300" y="-976" as="sourcePoint" />
            <mxPoint x="300" y="-876" as="targetPoint" />
            <Array as="points">
              <mxPoint x="340" y="-933" />
              <mxPoint x="340" y="-876" />
            </Array>
          </mxGeometry>
        </mxCell>
        <mxCell id="7_-KOmJF56WA2YFmEBqw-39" value="&lt;font color=&quot;#ffffff&quot;&gt;&lt;b&gt;Day&lt;/b&gt;&lt;/font&gt;" style="swimlane;html=1;fontStyle=0;childLayout=stackLayout;horizontal=1;startSize=26;fillColor=#8e0b32;horizontalStack=0;resizeParent=1;resizeLast=0;collapsible=1;marginBottom=0;swimlaneFillColor=#ffffff;align=center;rounded=1;shadow=0;comic=0;labelBackgroundColor=none;strokeWidth=1;fontFamily=Verdana;fontSize=12;strokeColor=#9673a6;" vertex="1" parent="1">
          <mxGeometry x="150" y="-786" width="160" height="84" as="geometry" />
        </mxCell>
        <mxCell id="7_-KOmJF56WA2YFmEBqw-40" value="" style="endArrow=diamondThin;endFill=1;endSize=24;html=1;rounded=0;" edge="1" parent="1">
          <mxGeometry width="160" relative="1" as="geometry">
            <mxPoint x="130" y="-966" as="sourcePoint" />
            <mxPoint x="150" y="-766" as="targetPoint" />
            <Array as="points">
              <mxPoint x="110" y="-966" />
              <mxPoint x="110" y="-766" />
            </Array>
          </mxGeometry>
        </mxCell>
        <mxCell id="7_-KOmJF56WA2YFmEBqw-41" value="" style="endArrow=diamondThin;endFill=1;endSize=24;html=1;rounded=0;exitX=0;exitY=0.5;exitDx=0;exitDy=0;" edge="1" parent="1" source="7_-KOmJF56WA2YFmEBqw-29">
          <mxGeometry width="160" relative="1" as="geometry">
            <mxPoint x="130" y="-932" as="sourcePoint" />
            <mxPoint x="150" y="-732" as="targetPoint" />
            <Array as="points">
              <mxPoint x="100" y="-1074" />
              <mxPoint x="100" y="-732" />
            </Array>
          </mxGeometry>
        </mxCell>
        <mxCell id="7_-KOmJF56WA2YFmEBqw-42" value="" style="endArrow=diamondThin;endFill=0;endSize=24;html=1;rounded=0;entryX=0.75;entryY=1;entryDx=0;entryDy=0;" edge="1" parent="1" target="7_-KOmJF56WA2YFmEBqw-30">
          <mxGeometry width="160" relative="1" as="geometry">
            <mxPoint x="310" y="-736" as="sourcePoint" />
            <mxPoint x="489.94000000000005" y="-736" as="targetPoint" />
            <Array as="points">
              <mxPoint x="460" y="-736" />
            </Array>
          </mxGeometry>
        </mxCell>
        <mxCell id="7_-KOmJF56WA2YFmEBqw-43" value="" style="endArrow=diamondThin;endFill=0;endSize=24;html=1;rounded=0;entryX=0.75;entryY=1;entryDx=0;entryDy=0;exitX=0.5;exitY=1;exitDx=0;exitDy=0;" edge="1" parent="1" source="7_-KOmJF56WA2YFmEBqw-27">
          <mxGeometry width="160" relative="1" as="geometry">
            <mxPoint x="190" y="-756" as="sourcePoint" />
            <mxPoint x="340" y="-806" as="targetPoint" />
            <Array as="points">
              <mxPoint x="220" y="-806" />
              <mxPoint x="280" y="-806" />
            </Array>
          </mxGeometry>
        </mxCell>
        <mxCell id="7_-KOmJF56WA2YFmEBqw-44" value="" style="endArrow=diamondThin;endFill=0;endSize=24;html=1;rounded=0;" edge="1" parent="1" source="7_-KOmJF56WA2YFmEBqw-16">
          <mxGeometry width="160" relative="1" as="geometry">
            <mxPoint x="429.94000000000005" y="-598" as="sourcePoint" />
            <mxPoint x="269.94" y="-658" as="targetPoint" />
            <Array as="points">
              <mxPoint x="409.94000000000005" y="-658" />
            </Array>
          </mxGeometry>
        </mxCell>
        <mxCell id="7_-KOmJF56WA2YFmEBqw-45" value="" style="endArrow=diamondThin;endFill=0;endSize=24;html=1;rounded=0;exitX=0.5;exitY=1;exitDx=0;exitDy=0;" edge="1" parent="1" source="7_-KOmJF56WA2YFmEBqw-16">
          <mxGeometry width="160" relative="1" as="geometry">
            <mxPoint x="409.94000000000005" y="-506" as="sourcePoint" />
            <mxPoint x="269.94" y="-528" as="targetPoint" />
            <Array as="points">
              <mxPoint x="409.94000000000005" y="-528" />
            </Array>
          </mxGeometry>
        </mxCell>
        <mxCell id="7_-KOmJF56WA2YFmEBqw-46" value="&lt;font color=&quot;#ffffff&quot;&gt;&lt;b&gt;BusRoute&lt;/b&gt;&lt;/font&gt;" style="swimlane;html=1;fontStyle=0;childLayout=stackLayout;horizontal=1;startSize=26;fillColor=#8e0b32;horizontalStack=0;resizeParent=1;resizeLast=0;collapsible=1;marginBottom=0;swimlaneFillColor=#ffffff;align=center;rounded=1;shadow=0;comic=0;labelBackgroundColor=none;strokeWidth=1;fontFamily=Verdana;fontSize=12;strokeColor=#9673a6;" vertex="1" parent="1">
          <mxGeometry x="150" y="-455" width="160" height="84" as="geometry" />
        </mxCell>
        <mxCell id="7_-KOmJF56WA2YFmEBqw-47" value="" style="endArrow=diamondThin;endFill=0;endSize=24;html=1;rounded=0;" edge="1" parent="1">
          <mxGeometry width="160" relative="1" as="geometry">
            <mxPoint x="370.06" y="-410" as="sourcePoint" />
            <mxPoint x="310.06" y="-410" as="targetPoint" />
          </mxGeometry>
        </mxCell>
        <mxCell id="7_-KOmJF56WA2YFmEBqw-48" value="" style="endArrow=diamondThin;endFill=0;endSize=24;html=1;rounded=0;exitX=0.5;exitY=1;exitDx=0;exitDy=0;" edge="1" parent="1" source="7_-KOmJF56WA2YFmEBqw-12">
          <mxGeometry width="160" relative="1" as="geometry">
            <mxPoint x="580.06" y="-490" as="sourcePoint" />
            <mxPoint x="530.06" y="-410" as="targetPoint" />
            <Array as="points">
              <mxPoint x="590.06" y="-410" />
            </Array>
          </mxGeometry>
        </mxCell>
        <mxCell id="7_-KOmJF56WA2YFmEBqw-49" value="" style="endArrow=diamondThin;endFill=0;endSize=24;html=1;rounded=0;exitX=0.5;exitY=1;exitDx=0;exitDy=0;" edge="1" parent="1" source="7_-KOmJF56WA2YFmEBqw-12">
          <mxGeometry width="160" relative="1" as="geometry">
            <mxPoint x="600.06" y="-476" as="sourcePoint" />
            <mxPoint x="650.06" y="-410" as="targetPoint" />
            <Array as="points">
              <mxPoint x="590.06" y="-410" />
            </Array>
          </mxGeometry>
        </mxCell>
        <mxCell id="7_-KOmJF56WA2YFmEBqw-50" value="" style="endArrow=diamondThin;endFill=0;endSize=24;html=1;rounded=0;exitX=0.75;exitY=0;exitDx=0;exitDy=0;" edge="1" parent="1" source="7_-KOmJF56WA2YFmEBqw-13">
          <mxGeometry width="160" relative="1" as="geometry">
            <mxPoint x="800" y="-634.4200000000001" as="sourcePoint" />
            <mxPoint x="950" y="-634" as="targetPoint" />
            <Array as="points">
              <mxPoint x="880" y="-634" />
            </Array>
          </mxGeometry>
        </mxCell>
        <mxCell id="7_-KOmJF56WA2YFmEBqw-51" value="" style="endArrow=diamondThin;endFill=1;endSize=24;html=1;rounded=0;exitX=0.5;exitY=1;exitDx=0;exitDy=0;" edge="1" parent="1" source="7_-KOmJF56WA2YFmEBqw-1">
          <mxGeometry width="160" relative="1" as="geometry">
            <mxPoint x="820" y="-828.34" as="sourcePoint" />
            <mxPoint x="1110" y="-646" as="targetPoint" />
            <Array as="points">
              <mxPoint x="850" y="-826" />
              <mxPoint x="1140" y="-826" />
              <mxPoint x="1140" y="-646" />
            </Array>
          </mxGeometry>
        </mxCell>
        <mxCell id="7_-KOmJF56WA2YFmEBqw-52" value="" style="endArrow=open;endSize=12;dashed=1;html=1;rounded=0;exitX=0.5;exitY=1;exitDx=0;exitDy=0;entryX=0.448;entryY=0.018;entryDx=0;entryDy=0;entryPerimeter=0;" edge="1" parent="1" source="7_-KOmJF56WA2YFmEBqw-14" target="7_-KOmJF56WA2YFmEBqw-13">
          <mxGeometry width="160" relative="1" as="geometry">
            <mxPoint x="760" y="-666" as="sourcePoint" />
            <mxPoint x="920" y="-666" as="targetPoint" />
            <Array as="points">
              <mxPoint x="830" y="-666" />
              <mxPoint x="830" y="-646" />
            </Array>
          </mxGeometry>
        </mxCell>
        <mxCell id="7_-KOmJF56WA2YFmEBqw-53" value="" style="endArrow=diamondThin;endFill=1;endSize=24;html=1;rounded=0;entryX=0.5;entryY=1;entryDx=0;entryDy=0;exitX=0.5;exitY=0;exitDx=0;exitDy=0;" edge="1" parent="1" source="7_-KOmJF56WA2YFmEBqw-1" target="7_-KOmJF56WA2YFmEBqw-10">
          <mxGeometry width="160" relative="1" as="geometry">
            <mxPoint x="810" y="-1016" as="sourcePoint" />
            <mxPoint x="970" y="-1016" as="targetPoint" />
            <Array as="points">
              <mxPoint x="850" y="-1066" />
              <mxPoint x="950" y="-1066" />
            </Array>
          </mxGeometry>
        </mxCell>
        <mxCell id="7_-KOmJF56WA2YFmEBqw-54" value="" style="endArrow=open;endSize=12;dashed=1;html=1;rounded=0;exitX=0;exitY=0.5;exitDx=0;exitDy=0;entryX=1;entryY=0.5;entryDx=0;entryDy=0;" edge="1" parent="1" source="7_-KOmJF56WA2YFmEBqw-31" target="7_-KOmJF56WA2YFmEBqw-9">
          <mxGeometry width="160" relative="1" as="geometry">
            <mxPoint x="768" y="-915" as="sourcePoint" />
            <mxPoint x="770" y="-813" as="targetPoint" />
            <Array as="points">
              <mxPoint x="770" y="-884" />
              <mxPoint x="770" y="-824" />
            </Array>
          </mxGeometry>
        </mxCell>
        <mxCell id="7_-KOmJF56WA2YFmEBqw-55" value="" style="endArrow=diamondThin;endFill=0;endSize=24;html=1;rounded=0;" edge="1" parent="1">
          <mxGeometry width="160" relative="1" as="geometry">
            <mxPoint x="930" y="-966" as="sourcePoint" />
            <mxPoint x="1010" y="-1026" as="targetPoint" />
            <Array as="points">
              <mxPoint x="960" y="-966" />
              <mxPoint x="960" y="-1026" />
            </Array>
          </mxGeometry>
        </mxCell>
        <mxCell id="7_-KOmJF56WA2YFmEBqw-56" value="" style="endArrow=none;html=1;rounded=0;exitX=0.684;exitY=-0.002;exitDx=0;exitDy=0;exitPerimeter=0;" edge="1" parent="1" source="7_-KOmJF56WA2YFmEBqw-9">
          <mxGeometry width="50" height="50" relative="1" as="geometry">
            <mxPoint x="720" y="-912" as="sourcePoint" />
            <mxPoint x="770" y="-962" as="targetPoint" />
            <Array as="points">
              <mxPoint x="670" y="-962" />
            </Array>
          </mxGeometry>
        </mxCell>
        <mxCell id="7_-KOmJF56WA2YFmEBqw-57" value="" style="endArrow=diamondThin;endFill=0;endSize=24;html=1;rounded=0;entryX=0.5;entryY=0;entryDx=0;entryDy=0;exitX=0.5;exitY=1;exitDx=0;exitDy=0;" edge="1" parent="1" source="7_-KOmJF56WA2YFmEBqw-2" target="7_-KOmJF56WA2YFmEBqw-31">
          <mxGeometry width="160" relative="1" as="geometry">
            <mxPoint x="1080" y="-966" as="sourcePoint" />
            <mxPoint x="880" y="-906" as="targetPoint" />
          </mxGeometry>
        </mxCell>
        <mxCell id="7_-KOmJF56WA2YFmEBqw-58" value="" style="endArrow=diamondThin;endFill=0;endSize=24;html=1;rounded=0;exitX=0.25;exitY=1;exitDx=0;exitDy=0;entryX=0;entryY=0.5;entryDx=0;entryDy=0;" edge="1" parent="1" source="7_-KOmJF56WA2YFmEBqw-13" target="7_-KOmJF56WA2YFmEBqw-59">
          <mxGeometry width="160" relative="1" as="geometry">
            <mxPoint x="815" y="-500" as="sourcePoint" />
            <mxPoint x="990" y="-413.5" as="targetPoint" />
            <Array as="points">
              <mxPoint x="800" y="-480" />
              <mxPoint x="895" y="-480" />
              <mxPoint x="895" y="-413" />
            </Array>
          </mxGeometry>
        </mxCell>
        <mxCell id="7_-KOmJF56WA2YFmEBqw-59" value="&lt;font color=&quot;#ffffff&quot;&gt;&lt;b&gt;BorrowingHistory&lt;/b&gt;&lt;/font&gt;" style="swimlane;html=1;fontStyle=0;childLayout=stackLayout;horizontal=1;startSize=26;fillColor=#8e0b32;horizontalStack=0;resizeParent=1;resizeLast=0;collapsible=1;marginBottom=0;swimlaneFillColor=#ffffff;align=center;rounded=1;shadow=0;comic=0;labelBackgroundColor=none;strokeWidth=1;fontFamily=Verdana;fontSize=12;strokeColor=#9673a6;" vertex="1" parent="1">
          <mxGeometry x="975" y="-455" width="160" height="84" as="geometry" />
        </mxCell>
        <mxCell id="7_-KOmJF56WA2YFmEBqw-60" value="" style="endArrow=open;endSize=12;dashed=1;html=1;rounded=0;entryX=1;entryY=0.5;entryDx=0;entryDy=0;exitX=1;exitY=0.5;exitDx=0;exitDy=0;" edge="1" parent="1" source="7_-KOmJF56WA2YFmEBqw-24" target="7_-KOmJF56WA2YFmEBqw-59">
          <mxGeometry width="160" relative="1" as="geometry">
            <mxPoint x="1125" y="-520" as="sourcePoint" />
            <mxPoint x="1157" y="-450" as="targetPoint" />
            <Array as="points">
              <mxPoint x="1157" y="-514" />
              <mxPoint x="1157" y="-413" />
            </Array>
          </mxGeometry>
        </mxCell>
      </root>
    </mxGraphModel>
  </diagram>
</mxfile>
